
nColumns=19
nRows=74
DataType=double
version=3
OpenSimVersion=4.4-2022-10-11-798caa840
endheader
time	ground_force_calcn_r_vx	ground_force_calcn_r_vy	ground_force_calcn_r_vz	ground_force_calcn_r_px	ground_force_calcn_r_py	ground_force_calcn_r_pz	ground_force_calcn_r_mx	ground_force_calcn_r_my	ground_force_calcn_r_mz	ground_force_calcn_l_vx	ground_force_calcn_l_vy	ground_force_calcn_l_vz	ground_force_calcn_l_px	ground_force_calcn_l_py	ground_force_calcn_l_pz	ground_force_calcn_l_mx	ground_force_calcn_l_my	ground_force_calcn_l_mz
6.75	12.4451	685.107	-11.0498	-0.170449	0	-0.453658	0.086534	4.76372	-0.0768322	-37.0804	293.495	21.3138	-0.115614	0	-0.800853	-0.312985	2.47731	0.179904
6.76	12.8177	681.896	-11.4062	-0.171155	0	-0.453587	0.0895483	4.76395	-0.0796877	-37.2513	296.186	22.3741	-0.115873	0	-0.8009579999999999	-0.31399	2.49655	0.188591
6.77	13.1878	678.303	-11.7439	-0.171949	0	-0.45353	0.092776	4.77184	-0.08261789999999999	-37.298	298.195	23.3262	-0.116122	0	-0.8010429999999999	-0.314891	2.51753	0.196934
6.78	13.5468	674.331	-12.0625	-0.172834	0	-0.453489	0.09615990000000001	4.78663	-0.0856234	-37.2093	299.404	24.1446	-0.116358	0	-0.801108	-0.315442	2.5382	0.204686
6.79	13.8847	669.984	-12.3642	-0.173811	0	-0.453467	0.09963130000000001	4.80754	-0.08872090000000001	-36.98	299.723	24.8083	-0.116578	0	-0.8011509999999999	-0.315432	2.55658	0.21161
6.8	14.1912	665.268	-12.6547	-0.174876	0	-0.45346	0.103109	4.83364	-0.091945	-36.6089	299.096	25.3012	-0.116779	0	-0.801173	-0.314703	2.57114	0.217499
6.81	14.4535	660.192	-12.9431	-0.17603	0	-0.453468	0.106484	4.86388	-0.09535680000000001	-36.0976	297.496	25.6128	-0.116958	0	-0.801172	-0.313128	2.58062	0.222177
6.82	14.6562	654.771	-13.2424	-0.177267	0	-0.453491	0.109612	4.89697	-0.0990389	-35.4503	294.932	25.7385	-0.117115	0	-0.80115	-0.310588	2.58396	0.2255
6.83	14.7836	649.0309999999999	-13.567	-0.178583	0	-0.453524	0.112323	4.93121	-0.103079	-34.6727	291.437	25.6798	-0.117246	0	-0.801109	-0.30699	2.58036	0.227367
6.84	14.8249	643.009	-13.9304	-0.179975	0	-0.453566	0.114461	4.96456	-0.107554	-33.7716	287.072	25.4444	-0.117352	0	-0.801049	-0.302242	2.56917	0.227717
6.85	14.7791	636.752	-14.3443	-0.181439	0	-0.453611	0.11593	4.99479	-0.112519	-32.7549	281.913	25.0458	-0.117436	0	-0.800975	-0.296245	2.54971	0.226522
6.86	14.6539	630.317	-14.817	-0.182974	0	-0.45366	0.116694	5.01944	-0.117993	-31.6323	276.055	24.5027	-0.117497	0	-0.800888	-0.288923	2.52142	0.223802
6.87	14.4612	623.7670000000001	-15.3518	-0.184577	0	-0.453708	0.116746	5.0357	-0.123936	-30.4161	269.596	23.8382	-0.117536	0	-0.800794	-0.280203	2.48361	0.219606
6.88	14.2157	617.171	-15.9464	-0.186244	0	-0.453758	0.1161	5.04046	-0.130235	-29.1197	262.64	23.0777	-0.117554	0	-0.800697	-0.270006	2.43527	0.213982
6.89	13.9341	610.597	-16.5948	-0.187973	0	-0.453805	0.114799	5.03052	-0.13672	-27.7573	255.288	22.2473	-0.11755	0	-0.800598	-0.258262	2.37528	0.206996
6.9	13.6345	604.107	-17.2893	-0.189759	0	-0.453852	0.11292	5.00318	-0.143189	-26.3433	247.636	21.3723	-0.117521	0	-0.800499	-0.244953	2.30265	0.19873
6.91	13.3344	597.7569999999999	-18.0208	-0.191597	0	-0.453896	0.110563	4.95633	-0.14942	-24.893	239.774	20.4758	-0.117465	0	-0.800405	-0.230136	2.21671	0.1893
6.92	13.0482	591.59	-18.7795	-0.193477	0	-0.453939	0.107816	4.88823	-0.155172	-23.4213	231.779	19.5778	-0.117379	0	-0.8003169999999999	-0.213956	2.11732	0.178845
6.93	12.786	585.64	-19.5554	-0.19539	0	-0.453979	0.104739	4.79738	-0.160192	-21.9421	223.723	18.6945	-0.11726	0	-0.80024	-0.196634	2.00489	0.16753
6.94	12.5505	579.931	-20.342	-0.197322	0	-0.454017	0.101339	4.68262	-0.16425	-20.4671	215.667	17.8388	-0.117106	0	-0.800176	-0.178456	1.88043	0.155539
6.95	12.3385	574.479	-21.1364	-0.199256	0	-0.454049	0.09757689999999999	4.54318	-0.167154	-19.0062	207.664	17.0205	-0.116916	0	-0.800131	-0.15976	1.74555	0.143069
6.96	12.1408	569.293	-21.9398	-0.201176	0	-0.454075	0.093385	4.37889	-0.168756	-17.5675	199.764	16.2472	-0.11669	0	-0.800108	-0.140912	1.60234	0.130322
6.97	11.9432	564.37	-22.7554	-0.203064	0	-0.454093	0.08867269999999999	4.19018	-0.168948	-16.1581	192.007	15.524	-0.116431	0	-0.800114	-0.122286	1.45312	0.117486
6.98	11.7253	559.698	-23.5863	-0.204902	0	-0.454102	0.0833404	3.9782	-0.167646	-14.7842	184.431	14.853	-0.116134	0	-0.80015	-0.104236	1.30033	0.104722
6.99	11.4631	555.256	-24.4331	-0.206676	0	-0.4541	0.0773075	3.74465	-0.164778	-13.4505	177.064	14.234	-0.115801	0	-0.800221	-0.08708730000000001	1.14643	0.0921602
7	11.1366	551.022	-25.2916	-0.208375	0	-0.454087	0.07056900000000001	3.49165	-0.160265	-12.1604	169.936	13.6644	-0.115435	0	-0.800328	-0.0711121	0.993757	0.07990750000000001
7.01	10.7365	546.991	-26.1509	-0.209993	0	-0.454069	0.0632326	3.22151	-0.154016	-10.9162	163.068	13.1414	-0.115037	0	-0.800473	-0.0565174	0.844265	0.0680383
7.02	10.2685	543.172	-26.9937	-0.211537	0	-0.45405	0.0555178	2.93673	-0.145945	-9.71988	156.484	12.6631	-0.11461	0	-0.800658	-0.0434385	0.699333	0.0565917
7.03	9.752370000000001	539.596	-27.799	-0.21302	0	-0.45404	0.0477147	2.64004	-0.13601	-8.573270000000001	150.205	12.2296	-0.114158	0	-0.800883	-0.0319477	0.559727	0.0455726
7.04	9.216419999999999	536.299	-28.5469	-0.214454	0	-0.454045	0.040117	2.33439	-0.124258	-7.47776	144.248	11.8434	-0.113686	0	-0.80115	-0.0220723	0.425779	0.0349583
7.05	8.691929999999999	533.321	-29.2219	-0.215857	0	-0.454071	0.0329668	2.02278	-0.110833	-6.43357	138.626	11.5079	-0.113202	0	-0.801466	-0.0138087	0.29754	0.0247
7.06	8.20928	530.697	-29.8154	-0.217244	0	-0.454125	0.026424	1.70821	-0.09597	-5.43888	133.346	11.2263	-0.112712	0	-0.801834	-0.00713312	0.174885	0.0147233
7.07	7.79195	528.454	-30.3272	-0.218626	0	-0.454207	0.0205486	1.39362	-0.07997750000000001	-4.48993	128.411	11.0004	-0.11222	0	-0.80226	-0.00201437	0.0576108	0.00493526
7.08	7.45188	526.603	-30.7642	-0.22001	0	-0.454317	0.0153077	1.08175	-0.06319610000000001	-3.58148	123.82	10.8316	-0.111732	0	-0.802748	0.00157278	-0.0543744	-0.00475662
7.09	7.1888	525.135	-31.1384	-0.221395	0	-0.454455	0.010612	0.775199	-0.0459662	-2.70813	119.572	10.7213	-0.111255	0	-0.803304	0.00364696	-0.161024	-0.014438
7.1	6.99169	524.024	-31.464	-0.222779	0	-0.454616	0.00635655	0.476421	-0.0286058	-1.86583	115.671	10.6715	-0.110801	0	-0.803936	0.00423004	-0.26224	-0.0241935
7.11	6.84295	523.223	-31.7551	-0.224151	0	-0.454799	0.00245508	0.187719	-0.0113929	-1.05318	112.126	10.6845	-0.110383	0	-0.804651	0.00336189	-0.35792	-0.0341064
7.12	6.72429	522.676	-32.0228	-0.225505	0	-0.454997	-0.00114208	-0.08877309999999999	0.00543886	-0.272124	108.944	10.761	-0.11002	0	-0.8054519999999999	0.00111904	-0.448005	-0.044252
7.13	6.62005	522.326	-32.2738	-0.226827	0	-0.455208	-0.00444992	-0.351101	0.0216941	0.472396	106.13	10.899	-0.109724	0	-0.8063399999999999	-0.00236939	-0.532316	-0.0546662
7.14	6.51968	522.129	-32.5099	-0.228108	0	-0.455427	-0.00746114	-0.597526	0.0372045	1.17338	103.681	11.0928	-0.109507	0	-0.807307	-0.00690871	-0.610463	-0.0653133
7.15	6.41887	522.059	-32.7292	-0.22934	0	-0.455651	-0.0101637	-0.8266289999999999	0.0518236	1.82331	101.59	11.333	-0.109379	0	-0.8083360000000001	-0.0122392	-0.681933	-0.07607419999999999
7.16	6.31808	522.102	-32.9285	-0.230513	0	-0.455876	-0.0125535	-1.03737	0.0654261	2.41565	99.8449	11.6078	-0.109343	0	-0.809406	-0.0180531	-0.746183	-0.0867503
7.17	6.22	522.252	-33.1058	-0.231618	0	-0.456099	-0.0146389	-1.22913	0.0779152	2.94612	98.43729999999999	11.9053	-0.109405	0	-0.810488	-0.0240226	-0.802655	-0.0970757
7.18	6.12735	522.494	-33.2627	-0.232644	0	-0.456314	-0.0164366	-1.40158	0.0892268	3.413	97.3597	12.2148	-0.109571	0	-0.811554	-0.029823	-0.850734	-0.106733
7.19	6.04048	522.807	-33.4041	-0.233585	0	-0.456515	-0.0179623	-1.55465	0.0993325	3.81651	96.6087	12.5277	-0.109847	0	-0.81258	-0.0351503	-0.889773	-0.115381
7.2	5.95539	523.168	-33.538	-0.234432	0	-0.4567	-0.0192197	-1.68841	0.108236	4.15894	96.18380000000001	12.8386	-0.110243	0	-0.813544	-0.0397512	-0.9193249999999999	-0.122711
7.21	5.86422	523.562	-33.6734	-0.235183	0	-0.456864	-0.0201947	-1.803	0.115962	4.44463	96.0859	13.1452	-0.110767	0	-0.814434	-0.0434522	-0.939369	-0.128512
7.22	5.75629	523.978	-33.8184	-0.235839	0	-0.457004	-0.0208575	-1.89859	0.122538	4.67946	96.3181	13.448	-0.111425	0	-0.815242	-0.0461733	-0.950392	-0.132694
7.23	5.62081	524.41	-33.9795	-0.236405	0	-0.457121	-0.0211744	-1.97553	0.128006	4.87062	96.8847	13.7498	-0.112211	0	-0.815961	-0.0479274	-0.953355	-0.1353
7.24	5.4505	524.848	-34.1623	-0.236887	0	-0.457215	-0.0211278	-2.03447	0.132423	5.02728	97.7901	14.0551	-0.11312	0	-0.816595	-0.0488157	-0.949558	-0.136477
7.25	5.2428	525.285	-34.3726	-0.237297	0	-0.457288	-0.0207238	-2.07635	0.135868	5.16021	99.03440000000001	14.3682	-0.114141	0	-0.817144	-0.0490084	-0.940566	-0.13646
7.26	5.0004	525.727	-34.6167	-0.237648	0	-0.457343	-0.0199961	-2.10233	0.138429	5.27987	100.608	14.6922	-0.115258	0	-0.817618	-0.0487068	-0.928111	-0.135536
7.27	4.73187	526.1900000000001	-34.9	-0.237957	0	-0.457383	-0.0190089	-2.11381	0.1402	5.39451	102.488	15.0285	-0.116449	0	-0.8180269999999999	-0.0481087	-0.9139969999999999	-0.134025
7.28	4.44898	526.687	-35.228	-0.238238	0	-0.457409	-0.0178433	-2.11236	0.141288	5.5088	104.636	15.3776	-0.117689	0	-0.81838	-0.0473827	-0.900004	-0.132267
7.29	4.16314	527.235	-35.6053	-0.238505	0	-0.457423	-0.0165797	-2.09972	0.141798	5.62382	107.004	15.7411	-0.118949	0	-0.818686	-0.0466631	-0.887854	-0.13061
7.3	3.88467	527.848	-36.0336	-0.238762	0	-0.457426	-0.0152907	-2.07769	0.141834	5.73823	109.537	16.1221	-0.120202	0	-0.8189650000000001	-0.046054	-0.879126	-0.129393
7.31	3.62253	528.535	-36.511	-0.239018	0	-0.457418	-0.0140375	-2.0481	0.141482	5.84933	112.182	16.5257	-0.12143	0	-0.819236	-0.0456289	-0.8751	-0.128912
7.32	3.38507	529.306	-37.0314	-0.239275	0	-0.457401	-0.0128707	-2.01253	0.140801	5.95424	114.889	16.9589	-0.122616	0	-0.81952	-0.0454318	-0.876622	-0.129399
7.33	3.18171	530.158	-37.5851	-0.23953	0	-0.457376	-0.0118369	-1.97234	0.139827	6.05176	117.611	17.429	-0.12375	0	-0.819838	-0.0454917	-0.884096	-0.131016
7.34	3.02082	531.072	-38.1594	-0.239785	0	-0.457342	-0.0109701	-1.92858	0.138575	6.14228	120.309	17.9434	-0.124827	0	-0.820201	-0.0458238	-0.897549	-0.133865
7.35	2.90831	532.009	-38.7382	-0.240034	0	-0.457304	-0.0102876	-1.88189	0.13703	6.22544	122.951	18.5084	-0.125845	0	-0.820619	-0.0464094	-0.916577	-0.137976
7.36	2.85078	532.913	-39.3022	-0.240277	0	-0.457264	-0.00980378	-1.83267	0.135159	6.29801	125.519	19.1279	-0.126801	0	-0.821094	-0.047183	-0.940357	-0.143301
7.37	2.85742	533.71	-39.8302	-0.240516	0	-0.457225	-0.009536849999999999	-1.7813	0.132936	6.35316	128.004	19.802	-0.127695	0	-0.821625	-0.0480273	-0.96766	-0.149695
7.38	2.93651	534.325	-40.3033	-0.24075	0	-0.457192	-0.009496569999999999	-1.72799	0.13034	6.38114	130.41	20.5261	-0.128533	0	-0.822208	-0.0487806	-0.9969170000000001	-0.156912
7.39	3.09188	534.693	-40.7055	-0.240983	0	-0.457168	-0.009673279999999999	-1.67284	0.127351	6.37058	132.752	21.2915	-0.129314	0	-0.822835	-0.0492567	-1.02643	-0.164624
7.4	3.32005	534.772	-41.0253	-0.241215	0	-0.457155	-0.0100323	-1.61593	0.123967	6.30911	135.059	22.0864	-0.130036	0	-0.823497	-0.0492576	-1.05446	-0.172437
7.41	3.61062	534.54	-41.2573	-0.241446	0	-0.457158	-0.0105193	-1.55735	0.1202	6.18296	137.37	22.8976	-0.130697	0	-0.824179	-0.0485862	-1.07947	-0.179931
7.42	3.94959	533.998	-41.4024	-0.241677	0	-0.457177	-0.0110748	-1.49735	0.116094	5.97695	139.733	23.7124	-0.131298	0	-0.824868	-0.0470614	-1.10023	-0.186707
7.43	4.32228	533.159	-41.4678	-0.241911	0	-0.457214	-0.0116442	-1.43632	0.111714	5.6755	142.205	24.5215	-0.131836	0	-0.82555	-0.0445277	-1.11568	-0.192386
7.44	4.71409	532.0549999999999	-41.4653	-0.24215	0	-0.457268	-0.012181	-1.37481	0.107145	5.26353	144.853	25.3202	-0.132314	0	-0.826211	-0.0408765	-1.12492	-0.196636
7.45	5.11039	530.731	-41.4096	-0.242398	0	-0.457338	-0.0126474	-1.31348	0.102483	4.72767	147.75	26.1086	-0.132736	0	-0.826844	-0.0360673	-1.12718	-0.199182
7.46	5.49643	529.245	-41.318	-0.242659	0	-0.457424	-0.013013	-1.253	0.0978219	4.05839	150.964	26.8907	-0.133111	0	-0.827441	-0.0301585	-1.12184	-0.199829
7.47	5.86017	527.657	-41.2087	-0.242935	0	-0.457523	-0.0132631	-1.19423	0.0932659	3.25223	154.546	27.6735	-0.133444	0	-0.828002	-0.0233276	-1.10852	-0.198496
7.48	6.19643	526.02	-41.0986	-0.243231	0	-0.457632	-0.0134076	-1.13818	0.0889276	2.31378	158.526	28.4649	-0.133743	0	-0.828525	-0.0158667	-1.08709	-0.195198
